# xmcd CD database file
#
# Track frame offsets:
#	150
#	12789
#	30577
#	46107
#	67992
#	82203
#	99011
#	113608
#	127138
#	141455
#	160205
#	175846
#	195930
#
# Disc length: 2821 seconds
#
# Revision: 0
# Processed by: cddbd v1.5.2PL0 Copyright (c) Steve Scherf et al.
# Submitted via: CDex 1.60beta1-cs1
#
DISCID=a00b030d
DTITLE=Amber Lawrence - 3
DYEAR=2011
DGENRE=Country
TTITLE0=Everything's a song
TTITLE1=Try
TTITLE2=Everybody's a mess
TTITLE3=The man across the street
TTITLE4=Huge
TTITLE5=The peace i keep - Adam Harvey
TTITLE6=Hide the crazy
TTITLE7=Stars in my eyes
TTITLE8=My attraction - Axle Whitehead
TTITLE9=Time of our lives
TTITLE10=Pretty little liar
TTITLE11=Where i am
TTITLE12=Princess
EXTD=YEAR: 2011
EXTT0=
EXTT1=
EXTT2=
EXTT3=
EXTT4=
EXTT5=
EXTT6=
EXTT7=
EXTT8=
EXTT9=
EXTT10=
EXTT11=
EXTT12=
PLAYORDER=
